<svg id="Lag_1" data-name="Lag 1" xmlns="http://www.w3.org/2000/svg" viewBox="0 0 776.79 75.57"><defs><style>.cls-1{fill:#00446b;}.cls-2{fill:#9b2729;}.cls-3{fill:#fff;}.cls-4{fill:#a11d1a;}</style></defs><title>fuld-logo</title><path class="cls-1" d="M173.92,56.59h-5.77l7.27-21.38H183l7,20.59-5.85,1.11-1.34-4.54h-7.63Zm5.14-16.88h-.16l-2.41,8.21h5Z"/><path class="cls-1" d="M204.45,57l-4.29-6.9h-1.69v6.54h-5.88V35.33h8.25c5.73,0,8.68,2.78,8.68,7a6.6,6.6,0,0,1-3.78,6l4.88,7.44Zm-4.13-17.12h-1.88v5.84h1.8c2.24,0,3.47-1.06,3.47-3.06C203.71,40.77,202.4,39.83,200.32,39.83Z"/><path class="cls-1" d="M221.53,56.59h-8.25V35.33h8.57c4.75,0,7.77,1.71,7.77,5.56a4.8,4.8,0,0,1-3,4.58c2.29.78,3.8,2.32,3.8,5C230.44,54.82,226.84,56.59,221.53,56.59Zm-.16-17.21H219V44h2.25c1.8,0,2.93-.77,2.93-2.36S223.09,39.38,221.37,39.38Zm0,8.13H219v5.07h2.41c1.91,0,3.19-.77,3.19-2.49S223.54,47.51,221.37,47.51Z"/><path class="cls-1" d="M233.84,56.59V35.33h14.42V39.9h-8.54v3.64h6.42l.68,4.5h-7.1v4h8.79v4.54Z"/><path class="cls-1" d="M254.4,56.79a19.11,19.11,0,0,1-3.48-.25l-.73-4.91a10.67,10.67,0,0,0,2.53.29c1.76,0,2.78-.69,2.78-3V35.33h6.21V49.39C261.71,54.49,258.68,56.79,254.4,56.79Z"/><path class="cls-1" d="M273.74,56.59H266V35.33h7.61c7.44,0,11.24,4.21,11.24,10.63C284.81,52.17,280.72,56.59,273.74,56.59Zm-.26-16.52h-1.55V51.85h1.55c3.19,0,5.15-1.93,5.15-5.85S276.75,40.07,273.48,40.07Z"/><path class="cls-1" d="M287.42,56.59V35.33h14.43V39.9h-8.54v3.64h6.41l.7,4.5h-7.11v4h8.78v4.54Z"/><path class="cls-1" d="M317.55,57l-4.3-6.9h-1.67v6.54H305.7V35.33H314c5.72,0,8.67,2.78,8.67,7a6.61,6.61,0,0,1-3.77,6l4.87,7.44Zm-4.13-17.12h-1.87v5.84h1.79c2.24,0,3.47-1.06,3.47-3.06C316.81,40.77,315.51,39.83,313.42,39.83Z"/><path class="cls-1" d="M334.63,56.59h-8.26V35.33H335c4.74,0,7.77,1.71,7.77,5.56a4.8,4.8,0,0,1-3,4.58c2.28.78,3.79,2.32,3.79,5C343.54,54.82,340,56.59,334.63,56.59Zm-.16-17.21H332.1V44h2.25c1.8,0,2.95-.77,2.95-2.36S336.18,39.38,334.47,39.38Zm0,8.13H332.1v5.07h2.41c1.92,0,3.19-.77,3.19-2.49S336.63,47.51,334.47,47.51Z"/><path class="cls-1" d="M346.94,56.59V35.33h14.43V39.9h-8.55v3.64h6.42l.7,4.5h-7.12v4h8.8v4.54Z"/><path class="cls-1" d="M376.6,56.75h-7l-7-20.69,6.25-1,4.58,15.37,4.37-15.08h6.08Z"/><path class="cls-1" d="M386.6,56.59h-6.39l10.43-21.26h18.11V39.9h-8.56v3.64h6.43l.7,4.5h-7.13v4H409v4.54H394.32V52.37h-5.81Zm7.72-17.45-3.94,8.78h3.94Z"/><path class="cls-1" d="M421.66,57c-6.54,0-10.42-4.45-10.42-11,0-6.74,4.3-11.07,10.71-11.07a13.84,13.84,0,0,1,6.57,1.51l-.8,5.1A10.91,10.91,0,0,0,422.16,40c-2.87,0-5,2-5,6.17s1.77,6.25,5.1,6.25a4.89,4.89,0,0,0,2.29-.45V48.41h-3.27l-.61-4.09h9.12v10.5A15.67,15.67,0,0,1,421.66,57Z"/><path class="cls-1" d="M433.75,56.59V35.33h14.44V39.9h-8.54v3.64h6.41l.7,4.5h-7.11v4h8.77v4.54Z"/><path class="cls-1" d="M452,56.59V35.33h6.16V51.47H465l.74,5.12Z"/><path class="cls-1" d="M475.9,56.91a24.24,24.24,0,0,1-8.17-1.55l.86-4.82a21.44,21.44,0,0,0,7.31,1.79c2,0,2.91-.65,2.91-1.67s-.69-1.52-2.87-2.17c-4.86-1.38-7.52-2.74-7.52-6.78S471.61,35,476.15,35a17.87,17.87,0,0,1,7.07,1.4l-.82,4.7a16.89,16.89,0,0,0-6.2-1.51c-1.57,0-2.38.69-2.38,1.55s.66,1.46,3,2.16c5.28,1.55,7.44,2.91,7.44,6.66C484.24,54.25,480.92,56.91,475.9,56.91Z"/><path class="cls-1" d="M487.59,56.59V35.33H502V39.9h-8.54v3.64h6.42l.71,4.5h-7.13v4h8.8v4.54Z"/><path class="cls-1" d="M519.22,56.59l-8-12.35V56.59h-5.36V35.33h5.6l7.44,11.53V35.33h5.36V56.59Z"/><path class="cls-1" d="M535.74,56.91a24.24,24.24,0,0,1-8.17-1.55l.86-4.82a21.5,21.5,0,0,0,7.31,1.79c2,0,2.91-.65,2.91-1.67s-.69-1.52-2.86-2.17c-4.87-1.38-7.52-2.74-7.52-6.78S531.46,35,536,35a18,18,0,0,1,7.09,1.4l-.83,4.7A16.84,16.84,0,0,0,536,39.63c-1.55,0-2.37.69-2.37,1.55s.66,1.46,3,2.16c5.28,1.55,7.45,2.91,7.45,6.66C544.09,54.25,540.77,56.91,535.74,56.91Z"/><path class="cls-1" d="M556,56.59V35.33h14.43V39.9h-8.54v3.64h6.42L569,48h-7.11v4h8.79v4.54Z"/><path class="cls-1" d="M586.1,57l-4.28-6.9h-1.68v6.54h-5.89V35.33h8.26c5.72,0,8.67,2.78,8.67,7a6.62,6.62,0,0,1-3.76,6l4.86,7.44ZM582,39.83H580.1v5.84h1.8c2.25,0,3.46-1.06,3.46-3.06C585.36,40.77,584.06,39.83,582,39.83Z"/><path class="cls-1" d="M606.55,56.59V48.24H600.1v8.35h-6V35.33h6v7.81h6.45V35.33h5.93V56.59Z"/><path class="cls-1" d="M628.29,56.75h-7l-7-20.69,6.25-1,4.58,15.37,4.37-15.08h6.09Z"/><path class="cls-1" d="M637.33,56.59V35.33h14.43V39.9h-8.55v3.64h6.42l.7,4.5h-7.12v4H652v4.54Z"/><path class="cls-1" d="M667.45,57l-4.29-6.9h-1.68v6.54H655.6V35.33h8.26c5.72,0,8.65,2.78,8.65,7a6.61,6.61,0,0,1-3.75,6l4.87,7.44Zm-4.13-17.12h-1.88v5.84h1.79c2.27,0,3.48-1.06,3.48-3.06C666.71,40.77,665.41,39.83,663.32,39.83Z"/><path class="cls-1" d="M688.13,56.75h-7l-7-20.69,6.25-1L685,50.41l4.37-15.08h6.09Z"/><path class="cls-1" d="M703.8,56.91a24.22,24.22,0,0,1-8.19-1.55l.85-4.82a21.83,21.83,0,0,0,7.34,1.79c2,0,2.89-.65,2.89-1.67s-.7-1.52-2.86-2.17c-4.87-1.38-7.52-2.74-7.52-6.78S699.5,35,704,35a17.79,17.79,0,0,1,7.07,1.4l-.82,4.7a16.84,16.84,0,0,0-6.21-1.51c-1.56,0-2.38.69-2.38,1.55s.66,1.46,3,2.16c5.28,1.55,7.45,2.91,7.45,6.66C712.13,54.25,708.83,56.91,703.8,56.91Z"/><path class="cls-1" d="M727.34,57l-4.3-6.9h-1.68v6.54h-5.87V35.33h8.26c5.72,0,8.66,2.78,8.66,7a6.63,6.63,0,0,1-3.76,6l4.86,7.44Zm-4.13-17.12h-1.88v5.84h1.8c2.24,0,3.47-1.06,3.47-3.06C726.6,40.77,725.29,39.83,723.21,39.83Z"/><path class="cls-1" d="M740,56.59h-5.75l7.28-21.38h7.59l7,20.59-5.83,1.11L749,52.37h-7.64Zm5.24-23.5c-3.55,0-5.4-2-5.4-4.42s1.85-4.41,5.4-4.41,5.4,2,5.4,4.41S748.84,33.09,745.28,33.09Zm-.08,6.62H745l-2.41,8.21h5Zm.08-13.38a2.15,2.15,0,0,0-2,2.34,2.06,2.06,0,1,0,4.08,0A2.15,2.15,0,0,0,745.28,26.33Z"/><path class="cls-1" d="M765.66,56.59h-7.74V35.33h7.6c7.43,0,11.23,4.21,11.23,10.63C776.75,52.17,772.67,56.59,765.66,56.59Zm-.23-16.52h-1.55V51.85h1.55c3.19,0,5.16-1.93,5.16-5.85S768.7,40.07,765.43,40.07Z"/><path class="cls-2" d="M75.23,64.34a10.94,10.94,0,0,1-10.9,10.9H10.91A10.94,10.94,0,0,1,0,64.34V10.91A10.94,10.94,0,0,1,10.91,0H64.33a10.94,10.94,0,0,1,10.9,10.91Z"/><polygon class="cls-3" points="42.95 17.61 32.62 17.61 18.33 56.64 27.05 56.64 30.11 47.83 44.67 47.83 47.99 57.17 56.99 55.55 42.95 17.61"/><polygon class="cls-4" points="32.27 40.72 37.39 25.35 42.61 40.72 32.27 40.72"/><path class="cls-1" d="M150.5,64.34a10.93,10.93,0,0,1-10.89,10.9H86.18a10.94,10.94,0,0,1-10.91-10.9V10.91A10.94,10.94,0,0,1,86.18,0h53.43A10.93,10.93,0,0,1,150.5,10.91Z"/><polygon class="cls-3" points="125.34 49.54 109.25 49.54 109.25 40 122.19 40 121.11 32.99 109.25 32.99 109.25 24.81 124.8 24.81 124.8 17.8 100.54 17.8 100.54 56.64 125.34 56.64 125.34 49.54"/></svg>