<svg id="Lag_1" data-name="Lag 1" xmlns="http://www.w3.org/2000/svg" viewBox="0 0 117.67 58.66"><defs><style>.cls-1{fill:#9b2729;}.cls-2{fill:#fff;}.cls-3{fill:#a11d1a;}.cls-4{fill:#00446b;}</style></defs><title>logo</title><path class="cls-1" d="M58.82,50.19a8.54,8.54,0,0,1-8.51,8.51H8.64A8.54,8.54,0,0,1,.13,50.19V8.51A8.54,8.54,0,0,1,8.64,0H50.31a8.54,8.54,0,0,1,8.51,8.51Z"/><polygon class="cls-2" points="33.64 13.74 25.57 13.74 14.43 44.19 21.23 44.19 23.61 37.31 34.97 37.31 37.56 44.6 44.59 43.34 33.64 13.74"/><polygon class="cls-3" points="25.3 31.77 29.3 19.78 33.37 31.77 25.3 31.77"/><path class="cls-4" d="M117.54,50.19A8.53,8.53,0,0,1,109,58.7H67.36a8.54,8.54,0,0,1-8.52-8.51V8.51A8.54,8.54,0,0,1,67.36,0H109a8.53,8.53,0,0,1,8.5,8.51Z"/><polygon class="cls-2" points="97.91 38.65 85.36 38.65 85.36 31.2 95.46 31.2 94.61 25.74 85.36 25.74 85.36 19.36 97.49 19.36 97.49 13.89 78.56 13.89 78.56 44.19 97.91 44.19 97.91 38.65"/></svg>