<svg id="Lag_1" data-name="Lag 1" xmlns="http://www.w3.org/2000/svg" viewBox="0 0 244.83 114.16"><defs><style>.cls-1{fill:#9b2729;}.cls-2{fill:#fff;}</style></defs><title>ordforklaring</title><polygon class="cls-1" points="245.1 -0.27 -0.31 -0.27 -0.31 80.6 88.32 80.6 122.4 114.53 156.32 80.6 245.1 80.6 245.1 -0.27"/><path class="cls-2" d="M9.15,14.55c-2.32,0-3.8-1.73-3.8-4.28S6.85,6,9.18,6,13,7.69,13,10.25,11.49,14.55,9.15,14.55ZM9.16,7C7.52,7,6.51,8.27,6.51,10.26s1,3.26,2.65,3.26,2.66-1.27,2.66-3.26S10.8,7,9.16,7Z"/><path class="cls-2" d="M20.29,14.23l-1.14.25-2.53-3.57h-.85V14.4H14.64V6.12h2.25c1.69,0,2.75.84,2.75,2.35a2.25,2.25,0,0,1-1.81,2.29ZM16.85,7.12H15.77V10h1c1.09,0,1.78-.49,1.78-1.43S18,7.12,16.85,7.12Z"/><path class="cls-2" d="M23.83,14.4H21.48V6.12h2.4c2.88,0,4.35,1.7,4.35,4.13S26.67,14.4,23.83,14.4Zm.08-7.26h-1.3v6.24h1.27c2,0,3.19-1,3.19-3.12A2.86,2.86,0,0,0,23.91,7.14Z"/><path class="cls-2" d="M31,7.15V9.68h2.5l.16,1H31V14.4H29.91V6.12h4.31v1Z"/><path class="cls-2" d="M39,14.55c-2.33,0-3.8-1.73-3.8-4.28S36.66,6,39,6s3.81,1.73,3.81,4.29S41.3,14.55,39,14.55ZM39,7c-1.64,0-2.65,1.27-2.65,3.26s1,3.26,2.65,3.26,2.65-1.27,2.65-3.26S40.6,7,39,7Z"/><path class="cls-2" d="M50.1,14.23,49,14.48l-2.54-3.57h-.85V14.4H44.45V6.12H46.7c1.69,0,2.75.84,2.75,2.35a2.25,2.25,0,0,1-1.81,2.29ZM46.65,7.12H45.57V10h1c1.09,0,1.79-.49,1.79-1.43S47.76,7.12,46.65,7.12Z"/><path class="cls-2" d="M56.31,14.48l-3.9-4.28v4.2H51.29V6.12h1.12V9.84l3.51-3.72h1.35L53.64,10l3.85,4.26Z"/><path class="cls-2" d="M58.59,14.4V6.12h1.13v7.24h3l.15,1Z"/><path class="cls-2" d="M70,14.48l-1-2.57H65.64L64.7,14.4H63.56L66.8,6.08h1.13l3.19,8.16Zm-2.69-7L66,10.92h2.65Z"/><path class="cls-2" d="M78.11,14.23,77,14.48l-2.54-3.57h-.85V14.4H72.47V6.12h2.25c1.69,0,2.75.84,2.75,2.35a2.25,2.25,0,0,1-1.81,2.29ZM74.67,7.12H73.59V10h1c1.09,0,1.79-.49,1.79-1.43S75.78,7.12,74.67,7.12Z"/><path class="cls-2" d="M79.38,14.4V6.12H80.5V14.4Z"/><path class="cls-2" d="M88.16,14.4,83.61,8V14.4h-1V6.12h1L88,12.32V6.12h1V14.4Z"/><path class="cls-2" d="M94.7,14.55c-2.63,0-4-1.73-4-4.28S92.13,6,94.6,6a4.31,4.31,0,0,1,2.52.71l-.18,1.15A3.71,3.71,0,0,0,94.59,7c-1.81,0-2.76,1.27-2.76,3.26s1,3.25,2.87,3.25a3.26,3.26,0,0,0,1.68-.41V10.91H94.47l-.15-1h3.17v3.88A5.28,5.28,0,0,1,94.7,14.55Z"/><path class="cls-2" d="M10.52,21.23H7.29l-.45,2.88H9.36v.72H6.72L6.2,28.09H9.55l-.11.71H5.28L6.6,20.52h4Z"/><path class="cls-2" d="M15.61,24.71,15,28.8h-.77l.63-4a2.88,2.88,0,0,0,0-.39c0-.48-.21-.75-.69-.75s-1.19.55-2,1.53l-.55,3.57h-.77l.65-4.08,0-1.6h.68l0,1.26A3.36,3.36,0,0,1,14.33,23a1.16,1.16,0,0,1,1.31,1.24A4.09,4.09,0,0,1,15.61,24.71Z"/><path class="cls-2" d="M21.32,28.92c-1.26,0-2-.89-2-2.42,0-1.84,1.13-3.5,2.72-3.5,1.25,0,2,.89,2,2.41C24,27.26,22.92,28.92,21.32,28.92ZM22,23.64c-1.13,0-1.9,1.44-1.9,2.83s.6,1.81,1.32,1.81c1.13,0,1.88-1.44,1.88-2.84S22.66,23.64,22,23.64Z"/><path class="cls-2" d="M26.29,25.41l-.54,3.39H25l.65-4.08,0-1.6h.67l0,1.41a2.74,2.74,0,0,1,2.1-1.5v.76A3,3,0,0,0,26.29,25.41Z"/><path class="cls-2" d="M32.91,27.2l0,1.6h-.69l0-1.05a2.72,2.72,0,0,1-1.92,1.17c-1,0-1.63-.76-1.63-2.1,0-2.25,1.4-3.78,3.11-3.78a3.23,3.23,0,0,1,1.05.19l.44-2.9.8-.15Zm-1.26-3.5c-1.18,0-2.25,1.13-2.25,3,0,.94.36,1.5,1,1.5s1.05-.42,1.79-1.22l.5-3.11A2.52,2.52,0,0,0,31.65,23.7Z"/><path class="cls-2" d="M37.47,20.89a.85.85,0,0,0-.9.83l-.22,1.4h1.13v.65H36.25l-1.12,7.09-.79.13,1.14-7.22h-.84l.1-.65h.85l.24-1.51a1.48,1.48,0,0,1,1.65-1.39,2.37,2.37,0,0,1,.52,0v.68A3.17,3.17,0,0,0,37.47,20.89Z"/><path class="cls-2" d="M39.78,28.92c-1.26,0-2-.89-2-2.42,0-1.84,1.13-3.5,2.71-3.5,1.26,0,2,.89,2,2.41C42.5,27.26,41.37,28.92,39.78,28.92Zm.63-5.28c-1.12,0-1.89,1.44-1.89,2.83s.6,1.81,1.32,1.81c1.12,0,1.88-1.44,1.88-2.84S41.12,23.64,40.41,23.64Z"/><path class="cls-2" d="M44.75,25.41l-.54,3.39h-.77l.65-4.08,0-1.6h.67l0,1.41a2.72,2.72,0,0,1,2.1-1.5v.76A3,3,0,0,0,44.75,25.41Z"/><path class="cls-2" d="M49.3,25.69l2.14,3-.83.16-2.12-3.09-.48,3h-.77l1.34-8.47.78-.15-.83,5.38,2.57-2.44h1Z"/><path class="cls-2" d="M53.3,28.8h-.77l1.35-8.47.79-.15Z"/><path class="cls-2" d="M56.66,28.92c-.9,0-1.47-.69-1.47-1.91,0-2.3,1.48-4,3.21-4A4.07,4.07,0,0,1,60,23.4l-.61,3.75,0,1.65h-.68l0-1.17C58,28.4,57.33,28.92,56.66,28.92Zm2.54-5.05a2,2,0,0,0-.9-.17C57.09,23.7,56,25,56,26.94c0,.85.31,1.3.82,1.3s1.05-.45,1.93-1.4Z"/><path class="cls-2" d="M62.29,25.41l-.54,3.39H61l.65-4.08,0-1.6h.67l0,1.41a2.74,2.74,0,0,1,2.1-1.5v.76A3,3,0,0,0,62.29,25.41Z"/><path class="cls-2" d="M65.6,28.8h-.77l.92-5.68h.76Zm.83-7a.57.57,0,0,1-.56-.57.56.56,0,1,1,1.12,0A.57.57,0,0,1,66.43,21.76Z"/><path class="cls-2" d="M72.27,24.71l-.65,4.09h-.76l.62-4a3,3,0,0,0,0-.39c0-.48-.22-.75-.7-.75s-1.19.55-2,1.53l-.55,3.57h-.77l.65-4.08,0-1.6h.67l0,1.26A3.36,3.36,0,0,1,71,23a1.17,1.17,0,0,1,1.32,1.24A2.71,2.71,0,0,1,72.27,24.71Z"/><path class="cls-2" d="M77.42,28.58C77.17,30.19,76.32,31,74.9,31A4.85,4.85,0,0,1,73,30.52l.19-.68a4.23,4.23,0,0,0,1.76.44c1,0,1.51-.59,1.68-1.63l.14-.89a2.51,2.51,0,0,1-1.8,1c-1,0-1.63-.75-1.63-2,0-2.21,1.4-3.76,3.12-3.76a4.62,4.62,0,0,1,1.75.41Zm-1-4.88c-1.19,0-2.25,1.15-2.25,3,0,.9.37,1.4,1,1.4s1.07-.42,1.79-1.22l.48-3A2.55,2.55,0,0,0,76.38,23.7Z"/><path class="cls-2" d="M82.58,26.5c0,1.11.53,1.76,1.43,1.76a3,3,0,0,0,1.8-.72v.73a3.19,3.19,0,0,1-1.91.65c-1.29,0-2.1-.88-2.1-2.37,0-2.14,1.31-3.55,2.63-3.55,1.15,0,1.8.77,1.8,2.11a5.14,5.14,0,0,1-.09.87H82.61A4.41,4.41,0,0,0,82.58,26.5Zm2.86-1.11c.08-1.1-.24-1.78-1-1.78s-1.39.68-1.68,1.78Z"/><path class="cls-2" d="M88.45,25.41l-.54,3.39h-.77l.65-4.08,0-1.6h.68l0,1.41a2.74,2.74,0,0,1,2.1-1.5v.76A3,3,0,0,0,88.45,25.41Z"/><path class="cls-2" d="M94.34,26.5c0,1.11.53,1.76,1.43,1.76a3,3,0,0,0,1.8-.72v.73a3.19,3.19,0,0,1-1.91.65c-1.3,0-2.1-.88-2.1-2.37,0-2.14,1.31-3.55,2.63-3.55,1.15,0,1.8.77,1.8,2.11a5.14,5.14,0,0,1-.09.87H94.36C94.35,26.15,94.34,26.32,94.34,26.5Zm2.85-1.11c.09-1.1-.23-1.78-1-1.78s-1.39.68-1.68,1.78Z"/><path class="cls-2" d="M103.7,24.71l-.65,4.09h-.77l.63-4a2.88,2.88,0,0,0,0-.39c0-.48-.21-.75-.69-.75s-1.19.55-2,1.53l-.55,3.57H98.9l.65-4.08,0-1.6h.68l0,1.26A3.37,3.37,0,0,1,102.41,23a1.17,1.17,0,0,1,1.32,1.24A4.09,4.09,0,0,1,103.7,24.71Z"/><path class="cls-2" d="M110.36,20.89a.84.84,0,0,0-.9.83l-.23,1.4h1.14v.65h-1.23L108,30.86l-.79.13,1.14-7.22h-.84l.09-.65h.86l.24-1.51a1.47,1.47,0,0,1,1.65-1.39,2.37,2.37,0,0,1,.52,0v.68A3.29,3.29,0,0,0,110.36,20.89Z"/><path class="cls-2" d="M112.66,28.92c-1.26,0-2-.89-2-2.42,0-1.84,1.12-3.5,2.71-3.5,1.26,0,2,.89,2,2.41C115.39,27.26,114.26,28.92,112.66,28.92Zm.64-5.28c-1.13,0-1.9,1.44-1.9,2.83s.6,1.81,1.32,1.81c1.13,0,1.89-1.44,1.89-2.84S114,23.64,113.3,23.64Z"/><path class="cls-2" d="M117.63,25.41l-.54,3.39h-.77l.65-4.08,0-1.6h.67l0,1.41a2.75,2.75,0,0,1,2.1-1.5v.76A3,3,0,0,0,117.63,25.41Z"/><path class="cls-2" d="M122.19,25.69l2.14,3-.83.16-2.12-3.09-.48,3h-.77l1.34-8.47.78-.15-.84,5.38L124,23.12h1Z"/><path class="cls-2" d="M126.19,28.8h-.77l1.34-8.47.8-.15Z"/><path class="cls-2" d="M129.55,28.92c-.9,0-1.48-.69-1.48-1.91,0-2.3,1.49-4,3.22-4a4.11,4.11,0,0,1,1.64.36l-.61,3.75,0,1.65h-.67l0-1.17C130.85,28.4,130.22,28.92,129.55,28.92Zm2.54-5.05a2,2,0,0,0-.9-.17c-1.21,0-2.34,1.32-2.34,3.24,0,.85.31,1.3.83,1.3s1-.45,1.93-1.4Z"/><path class="cls-2" d="M135.18,25.41l-.54,3.39h-.77l.65-4.08,0-1.6h.67l0,1.41a2.74,2.74,0,0,1,2.1-1.5v.76A3,3,0,0,0,135.18,25.41Z"/><path class="cls-2" d="M138.49,28.8h-.77l.91-5.68h.77Zm.83-7a.57.57,0,0,1-.57-.57.57.57,0,1,1,.57.57Z"/><path class="cls-2" d="M145.16,24.71l-.65,4.09h-.77l.63-4a2.88,2.88,0,0,0,0-.39c0-.48-.21-.75-.69-.75s-1.19.55-2,1.53l-.55,3.57h-.77l.65-4.08,0-1.6h.68l0,1.26A3.37,3.37,0,0,1,143.87,23a1.17,1.17,0,0,1,1.32,1.24A4.09,4.09,0,0,1,145.16,24.71Z"/><path class="cls-2" d="M150.31,28.58c-.26,1.61-1.11,2.37-2.52,2.37a4.9,4.9,0,0,1-1.9-.43l.19-.68a4.28,4.28,0,0,0,1.77.44c1,0,1.51-.59,1.68-1.63l.14-.89a2.51,2.51,0,0,1-1.8,1c-1,0-1.63-.75-1.63-2,0-2.21,1.39-3.76,3.12-3.76a4.62,4.62,0,0,1,1.75.41Zm-1.05-4.88c-1.18,0-2.24,1.15-2.24,3,0,.9.37,1.4,1,1.4s1.06-.42,1.78-1.22l.48-3A2.52,2.52,0,0,0,149.26,23.7Z"/><path class="cls-2" d="M156.15,28.92c-.9,0-1.47-.69-1.47-1.91,0-2.3,1.48-4,3.21-4a4.07,4.07,0,0,1,1.64.36l-.61,3.75,0,1.65h-.68l0-1.17C157.46,28.4,156.82,28.92,156.15,28.92Zm2.54-5.05a2,2,0,0,0-.9-.17c-1.21,0-2.33,1.32-2.33,3.24,0,.85.31,1.3.82,1.3s1.05-.45,1.93-1.4Z"/><path class="cls-2" d="M163.48,20.89a.85.85,0,0,0-.9.83l-.22,1.4h1.13v.65h-1.23l-1.12,7.09-.79.13,1.14-7.22h-.84l.1-.65h.85l.24-1.51a1.48,1.48,0,0,1,1.65-1.39,2.37,2.37,0,0,1,.52,0v.68A3.17,3.17,0,0,0,163.48,20.89Z"/><path class="cls-2" d="M167.23,26.5c0,1.11.53,1.76,1.42,1.76a3,3,0,0,0,1.8-.72v.73a3.16,3.16,0,0,1-1.9.65c-1.3,0-2.1-.88-2.1-2.37,0-2.14,1.31-3.55,2.62-3.55,1.16,0,1.8.77,1.8,2.11a5.12,5.12,0,0,1-.08.87h-3.54C167.24,26.15,167.23,26.32,167.23,26.5Zm2.85-1.11c.09-1.1-.24-1.78-1-1.78s-1.39.68-1.68,1.78Z"/><path class="cls-2" d="M173.57,23.77l-.52,3.37c0,.08-.05.41-.05.5,0,.39.23.59.67.59a2.42,2.42,0,0,0,.58-.07v.65a3.22,3.22,0,0,1-.78.08c-.77,0-1.26-.31-1.26-1.09a4.2,4.2,0,0,1,.06-.61l.54-3.42H172l.1-.65h.85l.3-2L174,21l-.33,2.1H175v.65Z"/><path class="cls-2" d="M180.22,28.92c-1.26,0-2-.89-2-2.42,0-1.84,1.12-3.5,2.71-3.5,1.25,0,2,.89,2,2.41C182.94,27.26,181.82,28.92,180.22,28.92Zm.64-5.28c-1.13,0-1.9,1.44-1.9,2.83s.6,1.81,1.32,1.81c1.13,0,1.88-1.44,1.88-2.84S181.57,23.64,180.86,23.64Z"/><path class="cls-2" d="M185.19,25.41l-.54,3.39h-.77l.65-4.08,0-1.6h.67l0,1.41a2.74,2.74,0,0,1,2.1-1.5v.76A3,3,0,0,0,185.19,25.41Z"/><path class="cls-2" d="M191.81,27.2l0,1.6h-.69l0-1.05a2.72,2.72,0,0,1-1.92,1.17c-1,0-1.63-.76-1.63-2.1,0-2.25,1.4-3.78,3.11-3.78a3.23,3.23,0,0,1,1.05.19l.44-2.9.8-.15Zm-1.26-3.5c-1.18,0-2.25,1.13-2.25,3,0,.94.36,1.5,1,1.5s1.05-.42,1.79-1.22l.5-3.11A2.48,2.48,0,0,0,190.55,23.7Z"/><path class="cls-2" d="M193,30.39l-.41-.11,1-2.66h1Z"/><path class="cls-2" d="M202.07,24.17a2.58,2.58,0,0,0-1.45-.51.92.92,0,0,0-1,.84c0,.42.24.63.93,1,1.09.55,1.51.92,1.51,1.73a1.73,1.73,0,0,1-2,1.73,3.38,3.38,0,0,1-1.92-.62l.21-.72a2.93,2.93,0,0,0,1.81.68,1,1,0,0,0,1.11-1c0-.47-.25-.7-1-1.08-1-.49-1.42-.85-1.42-1.6A1.65,1.65,0,0,1,200.69,23a3.18,3.18,0,0,1,1.57.42Z"/><path class="cls-2" d="M205.16,28.92c-1.26,0-2-.89-2-2.42,0-1.84,1.13-3.5,2.71-3.5,1.26,0,2,.89,2,2.41C207.88,27.26,206.75,28.92,205.16,28.92Zm.63-5.28c-1.12,0-1.89,1.44-1.89,2.83s.6,1.81,1.32,1.81c1.12,0,1.88-1.44,1.88-2.84S206.5,23.64,205.79,23.64Z"/><path class="cls-2" d="M212.9,28.8h-.77l.62-4a2.18,2.18,0,0,0,.05-.39c0-.48-.17-.75-.66-.75s-1.17.55-2,1.53l-.55,3.57h-.77l.65-4.08,0-1.6h.67l0,1.26A3.4,3.4,0,0,1,212.32,23a1.12,1.12,0,0,1,1.26,1.24v.05a3.15,3.15,0,0,1,2-1.29,1.14,1.14,0,0,1,1.28,1.24,4,4,0,0,1,0,.47l-.65,4.09h-.77l.62-4a2.18,2.18,0,0,0,.05-.39c0-.48-.19-.75-.68-.75s-1.15.55-2,1.53Z"/><path class="cls-2" d="M222.58,25.69l2.14,3-.83.16-2.12-3.09-.48,3h-.77l1.34-8.47.78-.15-.84,5.38,2.58-2.44h1Z"/><path class="cls-2" d="M227,28.92c-.9,0-1.48-.69-1.48-1.91,0-2.3,1.49-4,3.22-4a4.07,4.07,0,0,1,1.64.36l-.61,3.75,0,1.65h-.67l0-1.17C228.32,28.4,227.68,28.92,227,28.92Zm2.54-5.05a2,2,0,0,0-.9-.17c-1.21,0-2.34,1.32-2.34,3.24,0,.85.32,1.3.83,1.3s1.05-.45,1.93-1.4Z"/><path class="cls-2" d="M236.13,24.71l-.65,4.09h-.77l.63-4a2.88,2.88,0,0,0,0-.39c0-.48-.21-.75-.69-.75s-1.19.55-2,1.53l-.55,3.57h-.77l.65-4.08,0-1.6h.68l0,1.26A3.37,3.37,0,0,1,234.84,23a1.17,1.17,0,0,1,1.32,1.24A4.09,4.09,0,0,1,236.13,24.71Z"/><path class="cls-2" d="M8.16,35.29a.84.84,0,0,0-.9.83L7,37.52H8.17v.65H6.93L5.82,45.26,5,45.39l1.14-7.22H5.33l.09-.65h.85L6.51,36a1.48,1.48,0,0,1,1.66-1.39,2.37,2.37,0,0,1,.52,0v.68A3.29,3.29,0,0,0,8.16,35.29Z"/><path class="cls-2" d="M10.46,43.32c-1.26,0-2-.89-2-2.42,0-1.84,1.12-3.5,2.71-3.5,1.25,0,2,.89,2,2.41C13.18,41.66,12.06,43.32,10.46,43.32ZM11.1,38C10,38,9.2,39.48,9.2,40.87s.6,1.81,1.32,1.81c1.13,0,1.88-1.44,1.88-2.84S11.81,38,11.1,38Z"/><path class="cls-2" d="M15.43,39.81l-.54,3.39h-.77l.65-4.08,0-1.6h.67l0,1.41a2.74,2.74,0,0,1,2.1-1.5v.76A3,3,0,0,0,15.43,39.81Z"/><path class="cls-2" d="M20,40.09l2.13,3-.82.16-2.13-3.09-.48,3h-.76l1.34-8.47.78-.15L19.21,40l2.58-2.44h1Z"/><path class="cls-2" d="M24,43.2h-.77l1.34-8.47.79-.15Z"/><path class="cls-2" d="M27.35,43.32c-.9,0-1.48-.69-1.48-1.91,0-2.3,1.49-4,3.22-4a4.11,4.11,0,0,1,1.64.36l-.61,3.75,0,1.65h-.67l0-1.17C28.65,42.8,28,43.32,27.35,43.32Zm2.54-5a2,2,0,0,0-.9-.17c-1.21,0-2.34,1.32-2.34,3.24,0,.85.31,1.3.83,1.3s1-.45,1.93-1.4Z"/><path class="cls-2" d="M33,39.81l-.54,3.39h-.76l.64-4.08,0-1.6H33l0,1.41a2.72,2.72,0,0,1,2.1-1.5v.76A3,3,0,0,0,33,39.81Z"/><path class="cls-2" d="M36.15,40.9c0,1.11.53,1.76,1.43,1.76a3,3,0,0,0,1.8-.72v.73a3.19,3.19,0,0,1-1.91.65c-1.29,0-2.1-.88-2.1-2.37,0-2.14,1.31-3.55,2.63-3.55,1.15,0,1.8.77,1.8,2.11a6.4,6.4,0,0,1-.08.87H36.18C36.17,40.54,36.15,40.72,36.15,40.9ZM39,39.79c.08-1.1-.24-1.78-1-1.78s-1.4.68-1.68,1.78Z"/><path class="cls-2" d="M44.26,38.57a2.58,2.58,0,0,0-1.45-.51.92.92,0,0,0-1,.84c0,.42.24.63.93,1,1.09.55,1.51.92,1.51,1.73a1.73,1.73,0,0,1-2,1.73,3.38,3.38,0,0,1-1.92-.62l.21-.72a2.93,2.93,0,0,0,1.81.68,1,1,0,0,0,1.11-1c0-.47-.25-.7-1-1.08-1-.49-1.42-.85-1.42-1.6a1.65,1.65,0,0,1,1.83-1.62,3.24,3.24,0,0,1,1.57.42Z"/><path class="cls-2" d="M46.13,43.2h-.94L45.38,42h.94Z"/><path class="cls-2" d="M53.86,43.35c-2,0-3.13-1.53-3.13-3.58,0-2.79,1.79-5,4-5,2,0,3.15,1.54,3.15,3.59C57.91,41.13,56.12,43.35,53.86,43.35Zm.87-7.88c-1.77,0-3.16,1.86-3.16,4.27,0,1.75.9,2.9,2.33,2.9,1.78,0,3.17-1.86,3.17-4.27C57.07,36.62,56.17,35.47,54.73,35.47Z"/><path class="cls-2" d="M60,39.81l-.54,3.39h-.76l.64-4.08,0-1.6h.67l0,1.41a2.72,2.72,0,0,1,2.09-1.5v.76A3,3,0,0,0,60,39.81Z"/><path class="cls-2" d="M66.66,41.6l0,1.6h-.68l0-1.05A2.7,2.7,0,0,1,64,43.32c-1,0-1.63-.76-1.63-2.1,0-2.25,1.41-3.78,3.11-3.78a3.18,3.18,0,0,1,1,.19l.45-2.9.79-.15ZM65.4,38.1c-1.19,0-2.26,1.13-2.26,3,0,.94.36,1.5,1,1.5s1-.42,1.79-1.22l.51-3.11A2.55,2.55,0,0,0,65.4,38.1Z"/><path class="cls-2" d="M75.1,41.6l0,1.6h-.69l0-1.05a2.72,2.72,0,0,1-1.92,1.17c-1,0-1.63-.76-1.63-2.1,0-2.25,1.4-3.78,3.11-3.78a3.18,3.18,0,0,1,1,.19l.44-2.9.8-.15Zm-1.26-3.5c-1.18,0-2.25,1.13-2.25,3,0,.94.36,1.5,1,1.5s1.05-.42,1.79-1.22l.5-3.11A2.48,2.48,0,0,0,73.84,38.1Z"/><path class="cls-2" d="M77.46,40.9c0,1.11.52,1.76,1.42,1.76a3,3,0,0,0,1.8-.72v.73a3.16,3.16,0,0,1-1.9.65c-1.3,0-2.1-.88-2.1-2.37,0-2.14,1.3-3.55,2.62-3.55,1.16,0,1.8.77,1.8,2.11a5.12,5.12,0,0,1-.08.87H77.48C77.47,40.54,77.46,40.72,77.46,40.9Zm2.85-1.11c.09-1.1-.24-1.78-1-1.78s-1.39.68-1.68,1.78Z"/><path class="cls-2" d="M83.32,39.81l-.54,3.39H82l.64-4.08,0-1.6h.67l0,1.41a2.72,2.72,0,0,1,2.1-1.5v.76A3,3,0,0,0,83.32,39.81Z"/><path class="cls-2" d="M89.23,43.2h-.77l.91-5.68h.77Zm.83-7a.57.57,0,0,1-.57-.57.57.57,0,1,1,.57.57Z"/><path class="cls-2" d="M93.16,40.09l2.14,3-.83.16-2.12-3.09-.48,3H91.1l1.34-8.47.78-.15L92.38,40,95,37.52h1Z"/><path class="cls-2" d="M98.41,40.09l2.13,3-.83.16-2.12-3.09-.48,3h-.77l1.35-8.47.78-.15L97.63,40l2.58-2.44h1Z"/><path class="cls-2" d="M102.12,40.9c0,1.11.52,1.76,1.42,1.76a3,3,0,0,0,1.8-.72v.73a3.16,3.16,0,0,1-1.9.65c-1.3,0-2.1-.88-2.1-2.37,0-2.14,1.3-3.55,2.62-3.55,1.16,0,1.8.77,1.8,2.11a5.12,5.12,0,0,1-.08.87h-3.54C102.13,40.54,102.12,40.72,102.12,40.9ZM105,39.79c.09-1.1-.24-1.78-1-1.78s-1.39.68-1.68,1.78Z"/><path class="cls-2" d="M111.33,40.09l2.14,3-.83.16-2.12-3.09-.48,3h-.77l1.34-8.47.78-.15L110.55,40l2.58-2.44h1Z"/><path class="cls-2" d="M115.76,43.32c-.9,0-1.47-.69-1.47-1.91,0-2.3,1.48-4,3.21-4a4.07,4.07,0,0,1,1.64.36l-.61,3.75,0,1.65h-.67l0-1.17C117.07,42.8,116.43,43.32,115.76,43.32Zm2.54-5a2,2,0,0,0-.9-.17c-1.21,0-2.34,1.32-2.34,3.24,0,.85.32,1.3.83,1.3s1-.45,1.93-1.4Z"/><path class="cls-2" d="M124.88,39.11l-.65,4.09h-.77l.63-4a2.88,2.88,0,0,0,0-.39c0-.48-.21-.75-.69-.75s-1.19.55-2,1.53l-.55,3.57h-.77l.65-4.08,0-1.6h.68l0,1.26a3.37,3.37,0,0,1,2.13-1.38,1.17,1.17,0,0,1,1.32,1.24A4.09,4.09,0,0,1,124.88,39.11Z"/><path class="cls-2" d="M131.54,35.29a.84.84,0,0,0-.9.83l-.23,1.4h1.14v.65h-1.23l-1.12,7.09-.79.13,1.14-7.22h-.84l.09-.65h.86L129.9,36a1.47,1.47,0,0,1,1.65-1.39,2.37,2.37,0,0,1,.52,0v.68A3.17,3.17,0,0,0,131.54,35.29Z"/><path class="cls-2" d="M133.84,43.32c-1.26,0-2-.89-2-2.42,0-1.84,1.12-3.5,2.71-3.5,1.26,0,2,.89,2,2.41C136.57,41.66,135.44,43.32,133.84,43.32Zm.64-5.28c-1.13,0-1.9,1.44-1.9,2.83s.6,1.81,1.32,1.81c1.13,0,1.89-1.44,1.89-2.84S135.19,38,134.48,38Z"/><path class="cls-2" d="M138.81,39.81l-.54,3.39h-.77l.65-4.08,0-1.6h.67l0,1.41a2.75,2.75,0,0,1,2.1-1.5v.76A3,3,0,0,0,138.81,39.81Z"/><path class="cls-2" d="M143.37,40.09l2.14,3-.83.16-2.12-3.09-.48,3h-.77l1.34-8.47.78-.15L142.59,40l2.58-2.44h1Z"/><path class="cls-2" d="M147.37,43.2h-.77l1.34-8.47.8-.15Z"/><path class="cls-2" d="M150.73,43.32c-.9,0-1.48-.69-1.48-1.91,0-2.3,1.49-4,3.22-4a4.11,4.11,0,0,1,1.64.36l-.61,3.75,0,1.65h-.67l0-1.17C152,42.8,151.4,43.32,150.73,43.32Zm2.54-5a2,2,0,0,0-.9-.17c-1.21,0-2.34,1.32-2.34,3.24,0,.85.31,1.3.83,1.3s1-.45,1.93-1.4Z"/><path class="cls-2" d="M156.36,39.81l-.54,3.39h-.77l.65-4.08,0-1.6h.67l0,1.41a2.74,2.74,0,0,1,2.1-1.5v.76A3,3,0,0,0,156.36,39.81Z"/><path class="cls-2" d="M159.54,40.9c0,1.11.52,1.76,1.42,1.76a3,3,0,0,0,1.8-.72v.73a3.19,3.19,0,0,1-1.91.65c-1.29,0-2.09-.88-2.09-2.37,0-2.14,1.3-3.55,2.62-3.55,1.15,0,1.8.77,1.8,2.11a5.12,5.12,0,0,1-.08.87h-3.54C159.55,40.54,159.54,40.72,159.54,40.9Zm2.85-1.11c.08-1.1-.24-1.78-1-1.78s-1.39.68-1.68,1.78Z"/><path class="cls-2" d="M167.65,38.57a2.63,2.63,0,0,0-1.46-.51.91.91,0,0,0-1,.84c0,.42.23.63.92,1,1.09.55,1.51.92,1.51,1.73a1.73,1.73,0,0,1-2,1.73,3.33,3.33,0,0,1-1.92-.62l.2-.72a2.93,2.93,0,0,0,1.81.68,1,1,0,0,0,1.12-1c0-.47-.26-.7-1-1.08-1-.49-1.42-.85-1.42-1.6a1.65,1.65,0,0,1,1.83-1.62,3.21,3.21,0,0,1,1.57.42Z"/><path class="cls-2" d="M168.33,44.79l-.41-.11L169,42h.95Z"/><path class="cls-2" d="M175.89,40.09l2.13,3-.82.16-2.13-3.09-.48,3h-.76l1.34-8.47.78-.15L175.11,40l2.58-2.44h1Z"/><path class="cls-2" d="M180.32,43.32c-.9,0-1.48-.69-1.48-1.91,0-2.3,1.49-4,3.22-4a4.07,4.07,0,0,1,1.64.36l-.61,3.75,0,1.65h-.67l0-1.17C181.63,42.8,181,43.32,180.32,43.32Zm2.54-5a2,2,0,0,0-.9-.17c-1.21,0-2.34,1.32-2.34,3.24,0,.85.32,1.3.83,1.3s1-.45,1.93-1.4Z"/><path class="cls-2" d="M189.44,39.11l-.65,4.09H188l.63-4a2.88,2.88,0,0,0,0-.39c0-.48-.21-.75-.69-.75s-1.19.55-2,1.53l-.55,3.57h-.77l.65-4.08,0-1.6H186l0,1.26a3.37,3.37,0,0,1,2.13-1.38,1.17,1.17,0,0,1,1.32,1.24A4.09,4.09,0,0,1,189.44,39.11Z"/><path class="cls-2" d="M193.9,43.2h-.76l.91-5.68h.76Zm.83-7a.57.57,0,0,1-.56-.57.56.56,0,1,1,1.12,0A.57.57,0,0,1,194.73,36.16Z"/><path class="cls-2" d="M197.84,40.09l2.13,3-.82.16L197,40.19l-.48,3h-.76l1.34-8.47.78-.15L197.06,40l2.58-2.44h1Z"/><path class="cls-2" d="M203.08,40.09l2.14,3-.83.16-2.12-3.09-.48,3H201l1.34-8.47.78-.15L202.3,40l2.58-2.44h1Z"/><path class="cls-2" d="M206.79,40.9c0,1.11.53,1.76,1.43,1.76a3,3,0,0,0,1.8-.72v.73a3.19,3.19,0,0,1-1.91.65c-1.29,0-2.1-.88-2.1-2.37,0-2.14,1.31-3.55,2.63-3.55,1.15,0,1.8.77,1.8,2.11a5.14,5.14,0,0,1-.09.87h-3.53A4.28,4.28,0,0,0,206.79,40.9Zm2.86-1.11c.08-1.1-.24-1.78-1.05-1.78s-1.39.68-1.68,1.78Z"/><path class="cls-2" d="M8.16,49.69a.84.84,0,0,0-.9.83L7,51.92H8.17v.65H6.93L5.82,59.66,5,59.79l1.14-7.22H5.33l.09-.65h.85l.24-1.51A1.48,1.48,0,0,1,8.17,49a2.37,2.37,0,0,1,.52,0v.68A3.29,3.29,0,0,0,8.16,49.69Z"/><path class="cls-2" d="M10.46,57.72c-1.26,0-2-.89-2-2.42,0-1.84,1.12-3.5,2.71-3.5,1.25,0,2,.89,2,2.41C13.18,56.06,12.06,57.72,10.46,57.72Zm.64-5.28c-1.13,0-1.9,1.44-1.9,2.83s.6,1.81,1.32,1.81c1.13,0,1.88-1.44,1.88-2.84S11.81,52.44,11.1,52.44Z"/><path class="cls-2" d="M15.43,54.21l-.54,3.39h-.77l.65-4.08,0-1.6h.67l0,1.41a2.74,2.74,0,0,1,2.1-1.5v.76A3,3,0,0,0,15.43,54.21Z"/><path class="cls-2" d="M20,54.49l2.13,3-.82.16-2.13-3.1-.48,3h-.76l1.34-8.47.78-.15-.84,5.38,2.58-2.44h1Z"/><path class="cls-2" d="M24,57.6h-.77l1.34-8.47.79-.15Z"/><path class="cls-2" d="M27.35,57.72c-.9,0-1.48-.69-1.48-1.91,0-2.3,1.49-4,3.22-4a4.11,4.11,0,0,1,1.64.36L30.12,56l0,1.65h-.67l0-1.17C28.65,57.2,28,57.72,27.35,57.72Zm2.54-5a2,2,0,0,0-.9-.17c-1.21,0-2.34,1.32-2.34,3.24,0,.85.31,1.3.83,1.3s1-.45,1.93-1.4Z"/><path class="cls-2" d="M33,54.21l-.54,3.39h-.76l.64-4.08,0-1.6H33l0,1.41a2.72,2.72,0,0,1,2.1-1.5v.76A3,3,0,0,0,33,54.21Z"/><path class="cls-2" d="M36.15,55.3c0,1.11.53,1.76,1.43,1.76a3,3,0,0,0,1.8-.72v.73a3.19,3.19,0,0,1-1.91.65c-1.29,0-2.1-.88-2.1-2.37,0-2.14,1.31-3.55,2.63-3.55,1.15,0,1.8.77,1.8,2.11a6.4,6.4,0,0,1-.08.87H36.18C36.17,54.94,36.15,55.12,36.15,55.3ZM39,54.19c.08-1.1-.24-1.78-1-1.78s-1.4.68-1.68,1.78Z"/><path class="cls-2" d="M44.26,53a2.58,2.58,0,0,0-1.45-.51.92.92,0,0,0-1,.84c0,.42.24.63.93,1,1.09.55,1.51.92,1.51,1.73a1.73,1.73,0,0,1-2,1.73,3.38,3.38,0,0,1-1.92-.62l.21-.72a2.93,2.93,0,0,0,1.81.68,1,1,0,0,0,1.11-1c0-.47-.25-.7-1-1.08-1-.5-1.42-.85-1.42-1.6a1.65,1.65,0,0,1,1.83-1.62,3.24,3.24,0,0,1,1.57.42Z"/><path class="cls-2" d="M49.94,57.72c-1.26,0-2-.89-2-2.42,0-1.84,1.13-3.5,2.71-3.5,1.26,0,2,.89,2,2.41C52.66,56.06,51.54,57.72,49.94,57.72Zm.64-5.28c-1.13,0-1.9,1.44-1.9,2.83s.6,1.81,1.32,1.81c1.13,0,1.88-1.44,1.88-2.84S51.28,52.44,50.58,52.44Z"/><path class="cls-2" d="M57.69,57.38c-.25,1.61-1.1,2.37-2.52,2.37a4.85,4.85,0,0,1-1.89-.43l.19-.68a4.27,4.27,0,0,0,1.76.44c1,0,1.51-.59,1.68-1.63l.15-.89a2.54,2.54,0,0,1-1.8,1c-1,0-1.63-.75-1.63-2,0-2.21,1.39-3.76,3.11-3.76a4.67,4.67,0,0,1,1.76.41Zm-1-4.88c-1.19,0-2.24,1.15-2.24,3,0,.9.37,1.4,1,1.4s1.07-.42,1.79-1.22l.48-3A2.55,2.55,0,0,0,56.65,52.5Z"/><path class="cls-2" d="M66.35,56l0,1.6h-.68l0-1.05a2.7,2.7,0,0,1-1.92,1.17c-1,0-1.63-.76-1.63-2.1,0-2.25,1.4-3.78,3.11-3.78a3.18,3.18,0,0,1,1,.19l.45-2.9.79-.15ZM65.1,52.5c-1.19,0-2.26,1.13-2.26,3,0,.94.36,1.5,1,1.5s1.05-.42,1.79-1.22l.51-3.11A2.55,2.55,0,0,0,65.1,52.5Z"/><path class="cls-2" d="M68.71,55.3c0,1.11.53,1.76,1.43,1.76a3,3,0,0,0,1.8-.72v.73a3.19,3.19,0,0,1-1.91.65c-1.3,0-2.1-.88-2.1-2.37,0-2.14,1.31-3.55,2.63-3.55,1.15,0,1.8.77,1.8,2.11a5.14,5.14,0,0,1-.09.87H68.73C68.72,54.94,68.71,55.12,68.71,55.3Zm2.85-1.11c.09-1.1-.24-1.78-1-1.78s-1.39.68-1.68,1.78Z"/><path class="cls-2" d="M74.58,54.21,74,57.6h-.77l.65-4.08,0-1.6h.67l0,1.41a2.74,2.74,0,0,1,2.1-1.5v.76A3,3,0,0,0,74.58,54.21Z"/><path class="cls-2" d="M80.08,49.69a.85.85,0,0,0-.9.83L79,51.92H80.1v.65H78.86l-1.12,7.09-.79.13,1.14-7.22h-.84l.1-.65h.85l.24-1.51A1.48,1.48,0,0,1,80.1,49a2.33,2.33,0,0,1,.51,0v.68A3.17,3.17,0,0,0,80.08,49.69Z"/><path class="cls-2" d="M82.39,57.72c-1.26,0-2-.89-2-2.42,0-1.84,1.13-3.5,2.71-3.5,1.26,0,2,.89,2,2.41C85.11,56.06,84,57.72,82.39,57.72ZM83,52.44c-1.12,0-1.89,1.44-1.89,2.83s.6,1.81,1.32,1.81c1.13,0,1.88-1.44,1.88-2.84S83.73,52.44,83,52.44Z"/><path class="cls-2" d="M87.36,54.21l-.54,3.39h-.77l.65-4.08,0-1.6h.67l0,1.41a2.74,2.74,0,0,1,2.1-1.5v.76A3,3,0,0,0,87.36,54.21Z"/><path class="cls-2" d="M94.51,54.49l2.13,3-.83.16-2.12-3.1-.48,3h-.77l1.35-8.47.78-.15-.84,5.38,2.58-2.44h1Z"/><path class="cls-2" d="M98.94,57.72c-.9,0-1.48-.69-1.48-1.91,0-2.3,1.49-4,3.21-4a4.12,4.12,0,0,1,1.65.36L101.71,56l0,1.65H101l0-1.17C100.24,57.2,99.61,57.72,98.94,57.72Zm2.54-5a2,2,0,0,0-.9-.17c-1.21,0-2.34,1.32-2.34,3.24,0,.85.31,1.3.83,1.3s1-.45,1.93-1.4Z"/><path class="cls-2" d="M108.05,53.51l-.64,4.09h-.77l.62-4a1.91,1.91,0,0,0,0-.39c0-.48-.22-.75-.7-.75s-1.18.55-2,1.53L104,57.6h-.76l.64-4.08,0-1.6h.67l0,1.26a3.37,3.37,0,0,1,2.13-1.38A1.17,1.17,0,0,1,108.09,53,2.71,2.71,0,0,1,108.05,53.51Z"/><path class="cls-2" d="M113.77,57.72c-1.26,0-2-.89-2-2.42,0-1.84,1.13-3.5,2.71-3.5,1.26,0,2,.89,2,2.41C116.49,56.06,115.36,57.72,113.77,57.72Zm.63-5.28c-1.12,0-1.89,1.44-1.89,2.83s.6,1.81,1.32,1.81c1.12,0,1.88-1.44,1.88-2.84S115.11,52.44,114.4,52.44Z"/><path class="cls-2" d="M118.74,54.21l-.54,3.39h-.77l.65-4.08,0-1.6h.67l0,1.41a2.72,2.72,0,0,1,2.1-1.5v.76A3,3,0,0,0,118.74,54.21Z"/><path class="cls-2" d="M125.36,56l0,1.6h-.68l0-1.05a2.7,2.7,0,0,1-1.92,1.17c-1,0-1.63-.76-1.63-2.1,0-2.25,1.41-3.78,3.11-3.78a3.24,3.24,0,0,1,1.06.19l.44-2.9.79-.15Zm-1.26-3.5c-1.19,0-2.26,1.13-2.26,3,0,.94.36,1.5,1,1.5s1-.42,1.78-1.22l.51-3.11A2.55,2.55,0,0,0,124.1,52.5Z"/><path class="cls-2" d="M129.92,49.69a.84.84,0,0,0-.9.83l-.23,1.4h1.14v.65h-1.24l-1.11,7.09-.79.13,1.14-7.22h-.84l.09-.65H128l.24-1.51A1.47,1.47,0,0,1,129.93,49a2.37,2.37,0,0,1,.52,0v.68A3.29,3.29,0,0,0,129.92,49.69Z"/><path class="cls-2" d="M132.22,57.72c-1.26,0-2-.89-2-2.42,0-1.84,1.12-3.5,2.71-3.5,1.26,0,2,.89,2,2.41C135,56.06,133.82,57.72,132.22,57.72Zm.64-5.28c-1.13,0-1.9,1.44-1.9,2.83s.6,1.81,1.32,1.81c1.13,0,1.89-1.44,1.89-2.84S133.57,52.44,132.86,52.44Z"/><path class="cls-2" d="M137.19,54.21l-.54,3.39h-.77l.65-4.08,0-1.6h.67l0,1.41a2.74,2.74,0,0,1,2.1-1.5v.76A3,3,0,0,0,137.19,54.21Z"/><path class="cls-2" d="M141.75,54.49l2.13,3-.82.16-2.13-3.1-.48,3h-.76L141,49.13l.78-.15L141,54.36l2.58-2.44h1Z"/><path class="cls-2" d="M145.75,57.6H145l1.34-8.47.79-.15Z"/><path class="cls-2" d="M149.11,57.72c-.9,0-1.48-.69-1.48-1.91,0-2.3,1.49-4,3.22-4a4.11,4.11,0,0,1,1.64.36L151.88,56l0,1.65h-.67l0-1.17C150.41,57.2,149.78,57.72,149.11,57.72Zm2.54-5a2,2,0,0,0-.9-.17c-1.21,0-2.34,1.32-2.34,3.24,0,.85.31,1.3.83,1.3s1-.45,1.93-1.4Z"/><path class="cls-2" d="M154.73,54.21l-.54,3.39h-.76l.65-4.08,0-1.6h.67l0,1.41a2.72,2.72,0,0,1,2.1-1.5v.76A3,3,0,0,0,154.73,54.21Z"/><path class="cls-2" d="M158.05,57.6h-.77l.91-5.68H159Zm.82-7a.57.57,0,0,1-.56-.57.57.57,0,1,1,1.13,0A.57.57,0,0,1,158.87,50.56Z"/><path class="cls-2" d="M164.72,53.51l-.65,4.09h-.77l.62-4a1.91,1.91,0,0,0,0-.39c0-.48-.21-.75-.69-.75s-1.19.55-2,1.53l-.55,3.57h-.77l.65-4.08,0-1.6h.67l0,1.26a3.37,3.37,0,0,1,2.13-1.38A1.17,1.17,0,0,1,164.75,53,4.09,4.09,0,0,1,164.72,53.51Z"/><path class="cls-2" d="M169.86,57.38c-.25,1.61-1.1,2.37-2.51,2.37a4.9,4.9,0,0,1-1.9-.43l.19-.68a4.28,4.28,0,0,0,1.77.44c1,0,1.51-.59,1.68-1.63l.14-.89a2.51,2.51,0,0,1-1.8,1c-1,0-1.63-.75-1.63-2,0-2.21,1.39-3.76,3.12-3.76a4.66,4.66,0,0,1,1.75.41Zm-1-4.88c-1.19,0-2.24,1.15-2.24,3,0,.9.37,1.4,1,1.4s1.07-.42,1.79-1.22l.48-3A2.52,2.52,0,0,0,168.82,52.5Z"/><path class="cls-2" d="M175,57.6h-.77l.91-5.68H176Zm.83-7a.57.57,0,0,1-.57-.57.57.57,0,1,1,.57.57Z"/><path class="cls-2" d="M179,54.49l2.14,3-.83.16-2.12-3.1-.48,3h-.77l1.34-8.47L179,49l-.84,5.38,2.58-2.44h1Z"/><path class="cls-2" d="M184.22,54.49l2.13,3-.83.16-2.12-3.1-.48,3h-.77l1.35-8.47.78-.15-.84,5.38L186,51.92h1Z"/><path class="cls-2" d="M187.93,55.3c0,1.11.52,1.76,1.42,1.76a3,3,0,0,0,1.8-.72v.73a3.16,3.16,0,0,1-1.9.65c-1.3,0-2.1-.88-2.1-2.37,0-2.14,1.3-3.55,2.62-3.55,1.16,0,1.8.77,1.8,2.11a5.12,5.12,0,0,1-.08.87H188C187.94,54.94,187.93,55.12,187.93,55.3Zm2.85-1.11c.09-1.1-.24-1.78-1-1.78s-1.39.68-1.68,1.78Z"/><path class="cls-2" d="M198.09,49.69a.84.84,0,0,0-.9.83l-.23,1.4h1.14v.65h-1.23l-1.12,7.09-.79.13,1.14-7.22h-.84l.09-.65h.86l.24-1.51A1.47,1.47,0,0,1,198.1,49a2.37,2.37,0,0,1,.52,0v.68A3.17,3.17,0,0,0,198.09,49.69Z"/><path class="cls-2" d="M199.25,57.6h-.76l.91-5.68h.77Zm.83-7a.57.57,0,0,1-.56-.57.56.56,0,0,1,.56-.57.57.57,0,0,1,.57.57A.58.58,0,0,1,200.08,50.56Z"/><path class="cls-2" d="M205.92,53.51l-.64,4.09h-.77l.62-4a1.91,1.91,0,0,0,0-.39c0-.48-.22-.75-.7-.75s-1.18.55-2,1.53l-.56,3.57h-.76l.64-4.08,0-1.6h.67l0,1.26a3.37,3.37,0,0,1,2.13-1.38A1.17,1.17,0,0,1,206,53,2.71,2.71,0,0,1,205.92,53.51Z"/><path class="cls-2" d="M211.29,56l0,1.6h-.68l0-1.05a2.7,2.7,0,0,1-1.91,1.17c-1,0-1.64-.76-1.64-2.1,0-2.25,1.41-3.78,3.11-3.78a3.24,3.24,0,0,1,1.06.19l.44-2.9.79-.15ZM210,52.5c-1.19,0-2.26,1.13-2.26,3,0,.94.36,1.5,1,1.5s1-.42,1.78-1.22l.51-3.11A2.55,2.55,0,0,0,210,52.5Z"/><path class="cls-2" d="M213.64,55.3c0,1.11.53,1.76,1.43,1.76a3,3,0,0,0,1.8-.72v.73a3.19,3.19,0,0,1-1.91.65c-1.29,0-2.1-.88-2.1-2.37,0-2.14,1.31-3.55,2.63-3.55,1.15,0,1.8.77,1.8,2.11a5.14,5.14,0,0,1-.09.87h-3.53A4.28,4.28,0,0,0,213.64,55.3Zm2.86-1.11c.08-1.1-.24-1.78-1.05-1.78s-1.39.68-1.68,1.78Z"/><path class="cls-2" d="M8.7,67.37a2.63,2.63,0,0,0-1.45-.51.91.91,0,0,0-1,.84c0,.42.24.63.92,1,1.09.55,1.51.92,1.51,1.73a1.73,1.73,0,0,1-1.95,1.73,3.33,3.33,0,0,1-1.92-.62l.2-.72a2.93,2.93,0,0,0,1.81.68,1,1,0,0,0,1.12-1c0-.47-.25-.7-1-1.08-1-.5-1.41-.86-1.41-1.6A1.64,1.64,0,0,1,7.32,66.2a3.21,3.21,0,0,1,1.57.42Z"/><path class="cls-2" d="M11.51,67,11,70.34c0,.08-.05.41-.05.5,0,.39.23.59.67.59a2.42,2.42,0,0,0,.58-.07V72a3.22,3.22,0,0,1-.78.08c-.77,0-1.26-.31-1.26-1.09a4.2,4.2,0,0,1,.06-.61L10.74,67H9.89l.1-.65h.86l.3-2,.79-.14-.33,2.1h1.31V67Z"/><path class="cls-2" d="M14.25,69.7c0,1.11.53,1.76,1.43,1.76a3,3,0,0,0,1.8-.72v.73a3.19,3.19,0,0,1-1.91.65c-1.29,0-2.1-.88-2.1-2.37,0-2.14,1.31-3.55,2.63-3.55,1.15,0,1.8.77,1.8,2.11a6.4,6.4,0,0,1-.08.87H14.28C14.27,69.34,14.25,69.52,14.25,69.7Zm2.86-1.11c.08-1.1-.24-1.78-1-1.78s-1.4.68-1.68,1.78Z"/><path class="cls-2" d="M23.12,70.4l0,1.6H22.4l0-1a2.72,2.72,0,0,1-1.92,1.17c-1,0-1.63-.76-1.63-2.1,0-2.25,1.4-3.78,3.1-3.78a3.24,3.24,0,0,1,1.06.19l.44-2.9.79-.15Zm-1.26-3.5c-1.19,0-2.25,1.13-2.25,3,0,.94.36,1.5,1,1.5s1-.42,1.79-1.22l.5-3.11A2.55,2.55,0,0,0,21.86,66.9Z"/><path class="cls-2" d="M25.51,72h-.94l.2-1.18h.93Z"/></svg>