<svg id="Lag_1" data-name="Lag 1" xmlns="http://www.w3.org/2000/svg" viewBox="0 0 300 300"><defs><style>.cls-1{fill:#fff;}</style></defs><title>1. Et fleksibelt arbejdsmarked</title><path class="cls-1" d="M246.65,132.73c-2.3,4.08-4.68,8.13-6.91,12.25-6.19,11.44-12.32,22.9-18.73,34.84-2.25-5.43-4.35-10.5-6.71-16.18-4.88,3.19-9.62,6-14,9.23-15.83,11.79-24.76,27.95-28.44,47-1.7,8.79-2.37,17.78-3.48,26.68-.16,1.25-.21,2.52-.3,3.77H133.37c.38-5.73.54-11.48,1.18-17.18,1.47-13,3.87-25.89,8.27-38.31,9.17-25.9,26.23-45.06,49.93-58.58,2.29-1.3,4.58-2.61,6.94-3.77,1.32-.65,1.44-1.34.9-2.64-1.94-4.6-3.76-9.25-5.8-14.3l17.57,5.6q16.57,5.25,33.15,10.48a6.12,6.12,0,0,0,1.14.12Z"/><path class="cls-1" d="M53.35,131.28c5.55-1.6,11.12-3.14,16.65-4.81,11.17-3.37,22.32-6.82,33.49-10.24.59-.18,1.21-.28,2.17-.49-1.91,4.68-3.64,9.18-5.6,13.58-.81,1.81-.43,2.64,1.28,3.51a123.14,123.14,0,0,1,35.44,26.43c4.55,5,4.66,4.87,1.41,10.53A134.7,134.7,0,0,0,125,203c-.13.5-.35,1-.7,2C116.94,186,103.8,173.09,86.06,164l-6.54,15.8c-1.94-3.54-3.66-6.7-5.38-9.87q-9.78-18-19.56-36a16.4,16.4,0,0,0-1.23-1.68Z"/><path class="cls-1" d="M150.72,51.26c4.92,6.21,9.82,12.44,14.77,18.63,6.11,7.63,12.27,15.21,18.4,22.83a7.84,7.84,0,0,1,.65,1.29H167.43v3c0,12.2,0,24.41,0,36.61a4.15,4.15,0,0,1-1.6,3.43c-5.31,4.87-10.51,9.87-15.26,14.37-3.21-2.91-6.68-6.08-10.17-9.23-2-1.78-3.87-3.63-5.95-5.26a3.6,3.6,0,0,1-1.47-3.24c0-12.12,0-24.25,0-36.37V94.15H115.51c2.32-2.85,4.2-5.17,6.1-7.48q13.89-16.89,27.78-33.78a8.67,8.67,0,0,0,.85-1.63Z"/></svg>