<svg id="Lag_1" data-name="Lag 1" xmlns="http://www.w3.org/2000/svg" viewBox="0 0 300 300"><defs><style>.cls-1{fill:#fff;}</style></defs><title>Tegnebræt 3</title><path class="cls-1" d="M113.14,126.82c-2.77-1.9-4.75-3.23-6.7-4.6s-2.87-2.92-1.47-5.08c1.51-2.31,3.5-2,5.54-.69,2.8,1.82,5.51,3.78,8.43,5.38a5.1,5.1,0,0,0,4,.43c5.6-2.74,11.06-5.79,17.49-9.23l-6.64-3.58c-2.11-1.15-3.42-2.7-2.12-5.18s3.6-2.49,5.44-1.08c7.15,5.44,13.45,4.66,19.46-1.85,1.54-1.66,3.75-2.21,5.52.08s.82,4-1.15,5.45c-1.7,1.28-3.35,2.62-6,4.7,7.24,2.24,13.71,4.32,20.24,6.17.7.2,1.9-.72,2.64-1.38,2.29-2,4.49-4.18,6.68-6.34,1.77-1.74,3.6-3.73,6.06-1.33s.82,4.6-1.23,6.38c-1.5,1.3-3.1,2.47-4.65,3.7l.7,1.59c6.67.76,13.34,1.61,20,2.15,1,.08,2.31-1.16,3.13-2.1,2.54-2.92,4.73-6.16,7.44-8.9,1-1,3.42-1.75,4.57-1.23,2.24,1,2.53,3.25.93,5.38a32.34,32.34,0,0,0-4.61,7.51c7.15-.69,14.32-1.29,21.45-2.17.88-.11,1.7-1.57,2.34-2.54,2.41-3.68,4.79-7.39,7.08-11.15,1.23-2,3.1-3.2,4.86-1.6a5.66,5.66,0,0,1,1.06,5c-1,2.8-3,5.27-5,8.57,3-.53,5.26-1,7.55-1.33s4,.4,4.49,2.83-1,3.67-3.25,4.1a7.1,7.1,0,0,1-1.15.33c-10.38.05-17,5.61-22.09,14.19-2.4,4.06-5.87,7.5-9.49,12l8.53-.47c2.26-.13,4,.49,4.33,3,.31,2.73-1.37,4-3.77,4.17-4.12.27-8.27.18-12.4.44-1.51.1-3.49.31-4.38,1.27-6,6.58-11.85,13.37-17.74,20.1l-1.61-.93c2.81.37,5.61.8,8.42,1.09,2.46.26,4.2,1.2,3.87,4s-2.29,3.38-4.69,3.11c-3.84-.43-7.69-.82-11.51-1.43a9.71,9.71,0,0,0-8.14,2c-6.24,4.76-12.82,9.08-19.87,14,3.17.94,5.94,1.88,8.78,2.58,2.36.59,4.11,1.62,3.57,4.33-.6,2.93-2.74,3.29-5.25,2.59-4.24-1.18-8.43-2.63-12.73-3.44a12.64,12.64,0,0,0-6.69.7c-4.2,1.67-8.18,3.89-12.23,5.92-2.32,1.17-4.21.84-5.29-1.61-1-2.29.09-3.83,2.18-4.83l9.25-4.44c-2.38-1-3.88-1.6-5.34-2.26-6.09-2.71-12.11-5.59-18.29-8.08a10.41,10.41,0,0,0-6-.35c-4.14,1-8.14,2.54-12.21,3.82-2.37.74-4.61.81-5.55-2.1s.93-4,3.37-4.74,5-1.61,8.4-2.7c-1.59-1.09-2.58-1.8-3.6-2.47-5.92-3.86-11.77-7.84-17.83-11.46a11.46,11.46,0,0,0-6.17-1.41c-3.71.21-7.38,1.1-11.07,1.63-2.65.38-5.32.5-5.8-3.07s2.25-3.72,4.64-4.11c2.22-.37,4.47-.66,7.57-1.11-3-2.55-5.54-4.6-8-6.73-3.21-2.81-6.71-5.4-9.46-8.61-3.13-3.65-6.74-4.74-11.28-4.35a73.65,73.65,0,0,1-8.4-.12c-2.42-.07-4.29-.94-4.12-3.74s2.07-3.49,4.47-3.49h7.13c-2.48-2.78-4.36-5-6.31-7.06-1.72-1.86-2-3.78-.16-5.62,2.15-2.09,3.86-.7,5.43,1,2.55,2.73,5.24,5.35,7.61,8.23a8.6,8.6,0,0,0,8.77,3.24c5.52-.88,11.09-1.43,17.63-2.24-2.57-2.31-4.43-4.09-6.4-5.74s-2.6-3.79-.75-5.88,3.77-.9,5.48.64a41.34,41.34,0,0,1,4.22,3.66c4.09,4.87,8.83,5.53,14.52,3.09C103.93,129.7,108.18,128.52,113.14,126.82Zm16.92,61.64c6.2,2.6,12,4.6,17.34,7.37,6,3.09,11.07,2.69,16.41-1.53,4.81-3.79,10.17-6.89,15.71-10.56-8.64-2.53-16.41-4.82-24.2-7.06a3.44,3.44,0,0,0-2.24,0C145.64,180.4,138.25,184.24,130.06,188.46Zm32-16.83c8.34,2,15.81,3.82,23.3,5.54a3.5,3.5,0,0,0,2.65-.36c6.73-5.76,13.37-11.62,20.65-18-8.64-1.2-16.12-2.26-23.61-3.22a3.82,3.82,0,0,0-2.55.69C176,161.12,169.5,166,162.05,171.63Zm-17.12,1.61c-8.43-4.11-15.81-7.71-23.2-11.27a2.82,2.82,0,0,0-1.92-.24c-7.29,2.39-14.55,4.85-23,7.7,8.33,4.91,15.84,9.35,23.39,13.74a2.38,2.38,0,0,0,1.87.23C129.44,180.17,136.79,176.87,144.93,173.24Zm-77.72-28c4,3.46,7.43,6.73,11.17,9.65,13.11,10.25,7.44,9.42,24,5,3.08-.82,6.08-1.94,9.71-3.11-7.37-5.19-13.87-9.81-20.45-14.33a4.49,4.49,0,0,0-3-.76C81.77,142.75,74.87,144,67.21,145.23Zm107.47,8.61c-8.21-2.69-15.23-5-22.27-7.26a3.27,3.27,0,0,0-2.31.07c-6.71,3.61-13.36,7.3-20.91,11.46,7.83,3.36,14.88,6.42,22,9.37a3.41,3.41,0,0,0,2.69.06C160.59,163.21,167.26,158.75,174.68,153.84Zm58.15-23.63c-8,0-14.85,0-21.75,0a3.44,3.44,0,0,0-2.14.85c-6,5.63-11.91,11.32-17.85,17,.24.53.48,1.06.71,1.59,7.35.59,14.7,1.21,22.06,1.72a2.93,2.93,0,0,0,2.06-1C221.49,143.81,227,137.19,232.83,130.21ZM142.74,143c-7.31-3.81-13.65-7.14-20-10.41-.79-.41-1.89-.94-2.6-.69-6.68,2.31-13.31,4.78-21,7.6,7.49,4.73,14.06,8.94,20.72,13a3.61,3.61,0,0,0,2.92.06C129.21,149.54,135.64,146.4,142.74,143Zm16-1.61c5.68,1.65,10.85,2.88,15.81,4.67s9,1,12.63-3.15c4-4.52,8.4-8.61,12.86-13.12-7.17-1.2-13.83-2.36-20.51-3.36a4.26,4.26,0,0,0-2.93.82C170.82,131.69,165.14,136.27,158.72,141.37Zm10.75-17.22c-7.29-2.67-13.5-5-19.74-7.18a3.61,3.61,0,0,0-2.67.09c-5.92,3.44-11.76,7-18.41,11,7.15,3.31,13.61,6.37,20.15,9.26a3.55,3.55,0,0,0,2.9-.37C157.46,132.91,163.12,128.75,169.47,124.15Z"/></svg>