<svg id="Lag_1" data-name="Lag 1" xmlns="http://www.w3.org/2000/svg" viewBox="0 0 300 300"><defs><style>.cls-1{fill:#fff;}</style></defs><title>3. Den aktive arbejdsmarkedspolitik</title><path class="cls-1" d="M165.32,125.8c-.44-1.76-7.63-3-15.73-1.76-7.86,1.16-14.08,3.44-14.45,5.22h0s-1.18,41.06-1.73,57.09L132.22,196a65.48,65.48,0,0,0,12.14-6.12q8.46-5.79,9.1-11.49l11.82-52.12a1.11,1.11,0,0,0,.07-.29"/><path class="cls-1" d="M144.28,120.42c-3.33-2.17-3.12-7.69.46-12.32s9.17-6.62,12.5-4.44,3.12,7.69-.46,12.32S147.61,122.6,144.28,120.42Z"/><path class="cls-1" d="M200.1,97.87l-6-.15a39.26,39.26,0,0,1-.19,5.38L187,172c-2.1,20.8-17.26,35.33-33.86,32.46l-39.77-6.9c4.35,15.63,17.13,28.39,30.77,29.64l50.73,3.16c15.07.47,28.58-15.16,30.35-34.53l6.53-62.75C233.89,114.62,219.74,98.83,200.1,97.87Z"/><path class="cls-1" d="M163.89,69.85l-62,8.07c-18.7,2.43-33.86,17-33.86,32.45V161.7c0,15.5,13.46,30.39,30.05,33.26l15.23,2.64A42.91,42.91,0,0,1,112,191l-7.11-61.29c-2.14-18.49,11.62-33.59,30.82-33.54l58.34,1.53C193.56,79.81,180.92,67.63,163.89,69.85Zm30.2,27.86a.49.49,0,0,0,0,.12h0v-.1Z"/></svg>