<svg id="Lag_1" data-name="Lag 1" xmlns="http://www.w3.org/2000/svg" viewBox="0 0 300 300"><defs><style>.cls-1{fill:#fff;}</style></defs><title>4. Bag om den danske flexicurity-model</title><path class="cls-1" d="M91.66,83.34H208.31l1.43.31a6.57,6.57,0,0,1,5.17,6.26c.25,5-2.53,7.94-7.53,8h-6.82v1.41c0,6.63,0,13.26,0,19.89,0,8.32-2.58,15.75-8.28,21.85-2.88,3.09-6.21,5.75-9.38,8.57-2.25,2-4.55,4-7,6.09a6.7,6.7,0,0,1,.67.43c3.67,3.17,7.27,6.41,11,9.49,8.61,7.06,13.11,16,13,27.25-.07,6.36,0,12.73,0,19.09v1.47c2.59,0,5.05-.07,7.5,0a6.77,6.77,0,0,1,6.84,6.15c.32,4.32-1.67,7.3-5.45,8a13.37,13.37,0,0,1-2.61.16H93.29c-.64,0-1.28,0-1.93-.06a6.55,6.55,0,0,1-5.92-4.54c-.11-.31-.25-.61-.38-.91v-3.41c.07-.09.17-.16.2-.26,1.17-3.56,3.2-5.13,6.91-5.21,2.38-.05,4.76,0,7.28,0v-1.34c0-6.59,0-13.18,0-19.77a30.11,30.11,0,0,1,9.1-22.39c3.47-3.43,7.29-6.5,11-9.72,1.72-1.52,3.46-3,5.21-4.54-4.41-3.63-8.82-7-13-10.74-8-7.19-12.53-16.06-12.32-27.07.12-6.18,0-12.35,0-18.53V97.88c-2.41,0-4.68.08-6.94,0a12.17,12.17,0,0,1-3.73-.78c-2.16-.84-3.09-2.76-3.72-4.85V89c.64-1.87,1.4-3.7,3.31-4.61A26.37,26.37,0,0,1,91.66,83.34Zm22.27,14.58v1.36c0,6.37.11,12.74,0,19.1A18.35,18.35,0,0,0,119,131.8a96.06,96.06,0,0,0,7.29,6.83c4.9,4.27,9.89,8.44,14.84,12.66a4,4,0,0,1,.8.94,7.21,7.21,0,0,1-1.38,8.63c-3.26,2.72-6.55,5.39-9.79,8.13-3.61,3.06-7.27,6.06-10.75,9.27a18.36,18.36,0,0,0-6.14,14.67c.2,6.37.05,12.74.05,19.1v1.3h14.32c.05-.33.12-.62.14-.91a21.17,21.17,0,0,1,3-9,49,49,0,0,1,10.17-12.14c2.69-2.41,5.56-4.63,8.58-7.13,3.56,3.09,7.09,5.9,10.31,9,5.73,5.55,10.64,11.65,11.36,20.12H186c0-.38.06-.72.06-1,0-6.89,0-13.79,0-20.69a24.61,24.61,0,0,0-.4-4.28c-.81-4.47-3.46-7.83-6.73-10.77q-4.26-3.84-8.62-7.57c-3.54-3-7.13-6-10.68-9a3.88,3.88,0,0,1-.82-.94,7.24,7.24,0,0,1,1.3-8.64c3.65-3.07,7.36-6.06,11-9.14,3.21-2.71,6.5-5.36,9.48-8.3A17.76,17.76,0,0,0,186.06,120c0-7.12,0-14.25,0-21.37a4.72,4.72,0,0,0-.11-.74Z"/><path class="cls-1" d="M91.66,83.34a26.37,26.37,0,0,0-3.29,1.08c-1.91.91-2.67,2.74-3.31,4.61V83.34Z"/><path class="cls-1" d="M128.4,119.57h43.23a15.25,15.25,0,0,1-1.15,6.07,21.64,21.64,0,0,1-7.8,9.39,41.2,41.2,0,0,1-11.94,5.9,2.2,2.2,0,0,1-1.21.09c-6.41-2.1-12.33-5.05-16.85-10.24a16.7,16.7,0,0,1-4.27-10.16C128.39,120.29,128.4,120,128.4,119.57Z"/></svg>