<svg id="Lag_1" data-name="Lag 1" xmlns="http://www.w3.org/2000/svg" viewBox="0 0 300 300"><defs><style>.cls-1{fill:#fff;}</style></defs><title>5. Marginalisering på det danske arbejdsmarked</title><path class="cls-1" d="M148.8,218.63H121.64V160.55h-9.57c-.14-1.57-.34-2.71-.34-3.86q0-18.24,0-36.49c0-8.72,4.54-13.21,13.19-13.22,5.4,0,10.82.19,16.21,0a22.31,22.31,0,0,1,14.53,4.64c8.93,6.4,18.06,12.53,27.12,18.76,4.81,3.31,5.91,6.37,3.54,9.91s-6.34,4-10.95.85c-8.11-5.52-16.13-11.16-24.2-16.74-.57-.39-1.19-.72-2.36-1.42Z"/><path class="cls-1" d="M96.48,170v48.56H71.2V170.29H61.56c-.14-1.43-.35-2.56-.35-3.7,0-10.35-.05-20.71,0-31.07,0-8,4.41-12.32,12.46-12.35,7.2,0,14.41,0,21.61,0,6.11.06,10.77,4,10.92,10,.3,12.12.09,24.26.09,36.74Z"/><path class="cls-1" d="M205,217.55l12.75-37.11c2.31.74,4.18,1.19,5.92,1.93,2.28,1,3.53.35,4.3-2,3.3-10,6.39-20,10.11-29.84,2-5.3-1.83-12.37-7.06-13.89-7.26-2.1-14.32-4.86-21.52-7.15-5.66-1.81-10.84.08-12.93,5.46-4.31,11.11-8.05,22.44-12,33.72l9.06,3.49c-4.24,12.51-8.25,24.75-12.61,36.88-1,2.9-.47,3.7,2.25,4.8Z"/><path class="cls-1" d="M134,79a11.71,11.71,0,0,1,12,12.21,12.49,12.49,0,0,1-12.27,12.14c-6.37-.08-12.18-6.08-12.08-12.49A12,12,0,0,1,134,79Z"/><path class="cls-1" d="M237.21,118c.19,7.76-5.31,11.94-11.81,12.34S213.16,124.8,213,118.28s5.78-12.25,12.61-12.2S237.21,111.1,237.21,118Z"/><path class="cls-1" d="M71.91,106.7a11.91,11.91,0,0,1,11.82-12c6.43-.06,12.77,5.85,12.34,12.19-.47,6.92-4.7,12-12.32,12C76.68,118.87,71.86,113.9,71.91,106.7Z"/><rect class="cls-1" x="193.5" y="213.85" width="44.58" height="4.66"/></svg>