<svg id="Lag_1" data-name="Lag 1" xmlns="http://www.w3.org/2000/svg" viewBox="0 0 300 300"><defs><style>.cls-1{fill:#fff;}</style></defs><title>7. Fremtidens arbejdsmarked</title><path class="cls-1" d="M171.35,72.26H128.64v40.23h42.71V72.26ZM139.63,99.63a7,7,0,1,1,7.05-7A7,7,0,0,1,139.63,99.63Zm20.73,0a7,7,0,1,1,7-7A7,7,0,0,1,160.36,99.63ZM219.68,161c-.63-13.64-6.48-23.18-13.68-28.82a38.3,38.3,0,0,0-17.91-7.72v-4.91H111.9v4.91A38.3,38.3,0,0,0,94,132.2c-7.21,5.64-13,15.17-13.68,28.82a13.19,13.19,0,0,0,4.35,25.65V180.8A7.35,7.35,0,1,1,92,173.45h5.87a13.19,13.19,0,0,0-9.23-12.54c.68-11.18,5.13-17.86,10.51-22.19a30.08,30.08,0,0,1,12.75-5.8v46h6.79v30.21a19.79,19.79,0,0,0-13.2,18.66h39.61a19.81,19.81,0,0,0-13.2-18.66V178.87H168.1v30.21a19.8,19.8,0,0,0-13.21,18.66h39.62a19.8,19.8,0,0,0-13.21-18.66V178.87h6.79v-46a30,30,0,0,1,12.74,5.8c5.38,4.33,9.84,11,10.52,22.19a13.16,13.16,0,0,0-9.24,12.54H208a7.36,7.36,0,1,1,7.36,7.35v5.87A13.19,13.19,0,0,0,219.68,161Zm-75.37-1.78h-7.57v-7.57h7.57Zm0-9.23h-7.57v-7.57h7.57Zm9.47,9.23h-7.57v-7.57h7.57Zm0-9.23h-7.57v-7.57h7.57Zm9.47,9.23h-7.58v-7.57h7.58Zm0-9.23h-7.58v-7.57h7.58ZM187.7,86.9a10.76,10.76,0,0,0-10.76-10.76V97.66A10.76,10.76,0,0,0,187.7,86.9ZM123,97.66V76.14a10.76,10.76,0,0,0,0,21.52Z"/></svg>